<mxfile host="app.diagrams.net" modified="2024-02-18T19:52:45.443Z" agent="Mozilla/5.0 (Windows NT 10.0; Win64; x64) AppleWebKit/537.36 (KHTML, like Gecko) Chrome/121.0.0.0 Safari/537.36" etag="7E8LRUyQTtrGjz1QtAzR" version="23.1.5" type="device">
  <diagram name="Page-1" id="rgsKUWvRpSVv5lPxU1iW">
    <mxGraphModel dx="1500" dy="746" grid="1" gridSize="10" guides="1" tooltips="1" connect="1" arrows="1" fold="1" page="1" pageScale="1" pageWidth="850" pageHeight="1100" math="0" shadow="0">
      <root>
        <mxCell id="0" />
        <mxCell id="1" parent="0" />
        <mxCell id="SwdpDC0ELQlj3BigTGKZ-1" value="" style="rounded=0;whiteSpace=wrap;html=1;" vertex="1" parent="1">
          <mxGeometry x="205" y="110" width="400" height="320" as="geometry" />
        </mxCell>
        <mxCell id="SwdpDC0ELQlj3BigTGKZ-2" value="UI (Java Swing)" style="rounded=0;whiteSpace=wrap;html=1;" vertex="1" parent="1">
          <mxGeometry x="290" y="170" width="220" height="60" as="geometry" />
        </mxCell>
        <mxCell id="SwdpDC0ELQlj3BigTGKZ-3" value="Service" style="rounded=0;whiteSpace=wrap;html=1;" vertex="1" parent="1">
          <mxGeometry x="290" y="250" width="220" height="60" as="geometry" />
        </mxCell>
        <mxCell id="SwdpDC0ELQlj3BigTGKZ-4" value="DAO" style="rounded=0;whiteSpace=wrap;html=1;" vertex="1" parent="1">
          <mxGeometry x="290" y="330" width="220" height="60" as="geometry" />
        </mxCell>
        <UserObject label="" id="SwdpDC0ELQlj3BigTGKZ-5">
          <mxCell style="rounded=0;whiteSpace=wrap;html=1;" vertex="1" parent="1">
            <mxGeometry x="280" y="470" width="250" height="170" as="geometry" />
          </mxCell>
        </UserObject>
        <mxCell id="SwdpDC0ELQlj3BigTGKZ-6" value="" style="shape=image;verticalLabelPosition=bottom;labelBackgroundColor=default;verticalAlign=top;aspect=fixed;imageAspect=0;image=https://blog.codewithdan.com/wp-content/uploads/2023/06/Docker-Logo.png;" vertex="1" parent="1">
          <mxGeometry x="290" y="470" width="124.44" height="70" as="geometry" />
        </mxCell>
        <mxCell id="SwdpDC0ELQlj3BigTGKZ-12" value="" style="rounded=1;whiteSpace=wrap;html=1;" vertex="1" parent="1">
          <mxGeometry x="332.5" y="540" width="145" height="64.93" as="geometry" />
        </mxCell>
        <mxCell id="SwdpDC0ELQlj3BigTGKZ-9" value="" style="shape=image;verticalLabelPosition=bottom;labelBackgroundColor=default;verticalAlign=top;aspect=fixed;imageAspect=0;image=data:image/png,iVBORw0KGgoAAAANSUhEUgAAACgAAAAoCAYAAACM/rhtAAAAAXNSR0IArs4c6QAABLtJREFUWEfFmEtslFUUx3//b2pba+W1QKpoJAE0JqggGiOJiURiWOELNOKGBl0IQYgBZwrCxJSZsWJYsBCMRkIi4iMsiEse0QgYCWwUXzQuSHwFiBqEvph75H5tp9P2m843MG3vcubcc373fPf+7zlXVDrW2zQSPInsWeBeYBJQE+HGgG7gL7CjKNhLB4fZro5KQiqWcdKeQ7YdmBbLvpyRcRynlbTpx3KmpQHTFtBt+zB8pkZrOKSVZLS7VIBowN6MfTxaVBF+OzBNJ6e/h/43HDCV3wFaNYZwA6FMs8mpvTj2YMCN9hDOvhkXuP6g2SAoDZhyfwC3jCug9AIZ7etnGJzBlLsI3DTOgOvJ6J1owKS9jiw7roB1aiSty9GA/teU+w1oGh9IbSar1tJ7sP+flPsWmD+mkKZXyGknmED+FgrH4D3Y4s5RqybSukLKFoAdBm4YVVCjnSuayzZdYqPNx7klZBNvlDok/p6so/gktdj9mH0CzKoiqM/QfvJqpk0Xw6ylbD+wBGxrecBekm7QMrI6UADbZHfh3BpMTwNTh32B0iu4AvwCep86dpPWP6HpUksw020HrS5S69iAA3PEUZzWkuNU8f4oBJlBAzU0IGrpwcjTieMSE+kiLTeIO221dLMMs7bo4mPkDP4HNJT5lD3Ad8i+wIIj5DlDAz4jvrRynEZMJmAS9dQylTxzkFuM6Qng9vJZV5KsPHzEIUnaFmRbqrjXKndVpwmk5RMVAeh/Srk/+/ZX5c6vd4aslUxic7Gb6HJrPHTQV1BZvTt0jYMBk+4ouWBBaNRb2XwZys7ojh/o1INhK7DBbqbGvUYmkY7+xCnndVCY7iGnX0OjlM2GsHidW0VOh+xDOoI1hR6lxVZhtqMSHTxLQoto1ZkCWIs14WgmsOUYM0s0S1Hr8Jf/CUw76eLAoMYpactD2ELjFV+o+wM5sM+xYNPQarfX4OrdmSYB1IZBLmM00MNpevhM+WG0XpxnsRCzbcCc4asZGTBOPeh18CfMDqHgK/L8TILz1NHBv+SZGN7vHrSRgCYC7sPcQtCjwG0xdHADWXn4CJlJWRIsU8W9VrmrGPXgWWB65Z6rMMOUIqe34ujgQWBhFULGdyG9SEZ7R9bBlDtJNnigT17uhrDDmxA/yjVZHuOCHuM99ZC2KXS7tcW3ydCmyetgDdJcMvo+DOffYmrMd/6Lym/w2IBdyN6mNngzLI579bYFrLUSHTyHtJiMThXCpq2RLp4CawbmAY0xoH25dQ7sEAS7aOfYgPyYaGE1Fr779PXDleug5zuCKUk9J4fVd/1auJQgLLNuxVfLLtruqnHa6unkGWRbgTsq1UFf15Xbcx7AN/jHkb7G+dqQ3wm4SBc91CLy4f09GbiTwM3r00B/VZbzDdKrZLSjlA6uAPsg9k4aDcMLqgsPTKRQh5vVnQB6T/JYD+l5Mvq0vA625HdhemlM+QI9wlYNe7ga6QFzCl3mszljdEFtD9lgxbBmrOQnHkqzzm6k3rWBXq5iE38e0zpy+qjc4uO9Ufd7SVsNHTxM4JpBj/e1jVEP6MVxO4F2ZPtxwZ5CIVyOLHYGYzrqNfPvKn4MvK1UND3CuLIMXm+0a5j/P3C4sjgjTkRUAAAAAElFTkSuQmCC;" vertex="1" parent="1">
          <mxGeometry x="337.78" y="552.47" width="40" height="40" as="geometry" />
        </mxCell>
        <mxCell id="SwdpDC0ELQlj3BigTGKZ-7" value="" style="shape=image;verticalLabelPosition=bottom;labelBackgroundColor=default;verticalAlign=top;aspect=fixed;imageAspect=0;image=https://upload.wikimedia.org/wikipedia/ru/d/d3/Mysql.png;" vertex="1" parent="1">
          <mxGeometry x="377.78" y="547.4" width="97" height="50.14" as="geometry" />
        </mxCell>
        <mxCell id="SwdpDC0ELQlj3BigTGKZ-17" value="" style="endArrow=classic;html=1;rounded=0;entryX=0.75;entryY=1;entryDx=0;entryDy=0;exitX=0.75;exitY=0;exitDx=0;exitDy=0;" edge="1" parent="1" source="SwdpDC0ELQlj3BigTGKZ-4" target="SwdpDC0ELQlj3BigTGKZ-3">
          <mxGeometry width="50" height="50" relative="1" as="geometry">
            <mxPoint x="400" y="370" as="sourcePoint" />
            <mxPoint x="450" y="320" as="targetPoint" />
          </mxGeometry>
        </mxCell>
        <mxCell id="SwdpDC0ELQlj3BigTGKZ-18" value="" style="endArrow=classic;html=1;rounded=0;exitX=0.75;exitY=0;exitDx=0;exitDy=0;entryX=0.75;entryY=1;entryDx=0;entryDy=0;" edge="1" parent="1" source="SwdpDC0ELQlj3BigTGKZ-3" target="SwdpDC0ELQlj3BigTGKZ-2">
          <mxGeometry width="50" height="50" relative="1" as="geometry">
            <mxPoint x="400" y="370" as="sourcePoint" />
            <mxPoint x="450" y="320" as="targetPoint" />
          </mxGeometry>
        </mxCell>
        <mxCell id="SwdpDC0ELQlj3BigTGKZ-19" value="" style="endArrow=classic;html=1;rounded=0;exitX=0.25;exitY=1;exitDx=0;exitDy=0;entryX=0.25;entryY=0;entryDx=0;entryDy=0;" edge="1" parent="1" source="SwdpDC0ELQlj3BigTGKZ-2" target="SwdpDC0ELQlj3BigTGKZ-3">
          <mxGeometry width="50" height="50" relative="1" as="geometry">
            <mxPoint x="400" y="370" as="sourcePoint" />
            <mxPoint x="450" y="320" as="targetPoint" />
          </mxGeometry>
        </mxCell>
        <mxCell id="SwdpDC0ELQlj3BigTGKZ-20" value="" style="endArrow=classic;html=1;rounded=0;exitX=0.25;exitY=1;exitDx=0;exitDy=0;entryX=0.25;entryY=0;entryDx=0;entryDy=0;" edge="1" parent="1" source="SwdpDC0ELQlj3BigTGKZ-3" target="SwdpDC0ELQlj3BigTGKZ-4">
          <mxGeometry width="50" height="50" relative="1" as="geometry">
            <mxPoint x="400" y="370" as="sourcePoint" />
            <mxPoint x="450" y="320" as="targetPoint" />
          </mxGeometry>
        </mxCell>
        <mxCell id="SwdpDC0ELQlj3BigTGKZ-21" value="" style="endArrow=classic;html=1;rounded=0;exitX=0.25;exitY=1;exitDx=0;exitDy=0;" edge="1" parent="1" source="SwdpDC0ELQlj3BigTGKZ-4">
          <mxGeometry width="50" height="50" relative="1" as="geometry">
            <mxPoint x="400" y="470" as="sourcePoint" />
            <mxPoint x="345" y="470" as="targetPoint" />
            <Array as="points">
              <mxPoint x="345" y="420" />
              <mxPoint x="345" y="450" />
            </Array>
          </mxGeometry>
        </mxCell>
        <mxCell id="SwdpDC0ELQlj3BigTGKZ-24" value="&lt;font face=&quot;Comic Sans MS&quot; style=&quot;font-size: 18px;&quot;&gt;Layered Architecture&lt;/font&gt;" style="text;html=1;align=center;verticalAlign=middle;whiteSpace=wrap;rounded=0;" vertex="1" parent="1">
          <mxGeometry x="306.5" y="120" width="197" height="30" as="geometry" />
        </mxCell>
        <mxCell id="SwdpDC0ELQlj3BigTGKZ-25" value="" style="endArrow=classic;html=1;rounded=0;exitX=0.701;exitY=0.015;exitDx=0;exitDy=0;entryX=0.75;entryY=1;entryDx=0;entryDy=0;exitPerimeter=0;" edge="1" parent="1" source="SwdpDC0ELQlj3BigTGKZ-5" target="SwdpDC0ELQlj3BigTGKZ-4">
          <mxGeometry width="50" height="50" relative="1" as="geometry">
            <mxPoint x="400" y="360" as="sourcePoint" />
            <mxPoint x="450" y="310" as="targetPoint" />
            <Array as="points">
              <mxPoint x="455" y="440" />
            </Array>
          </mxGeometry>
        </mxCell>
        <mxCell id="SwdpDC0ELQlj3BigTGKZ-26" value="main" style="rounded=0;whiteSpace=wrap;html=1;" vertex="1" parent="1">
          <mxGeometry x="170" y="20" width="120" height="60" as="geometry" />
        </mxCell>
        <mxCell id="SwdpDC0ELQlj3BigTGKZ-27" value="" style="endArrow=classic;html=1;rounded=0;exitX=0.5;exitY=1;exitDx=0;exitDy=0;entryX=0.25;entryY=0;entryDx=0;entryDy=0;" edge="1" parent="1" source="SwdpDC0ELQlj3BigTGKZ-26" target="SwdpDC0ELQlj3BigTGKZ-2">
          <mxGeometry width="50" height="50" relative="1" as="geometry">
            <mxPoint x="400" y="290" as="sourcePoint" />
            <mxPoint x="450" y="240" as="targetPoint" />
          </mxGeometry>
        </mxCell>
        <mxCell id="SwdpDC0ELQlj3BigTGKZ-28" value="Actor" style="shape=umlActor;verticalLabelPosition=bottom;verticalAlign=top;html=1;outlineConnect=0;" vertex="1" parent="1">
          <mxGeometry x="97.5" y="20" width="30" height="60" as="geometry" />
        </mxCell>
      </root>
    </mxGraphModel>
  </diagram>
</mxfile>
